# xmcd
#
# Track frame offsets:
#	150
#	14467
#	29301
#	43443
#	55864
#	67897
#	96579
#	109446
#	122298
#	135770
#	148584
#	164493
#	179780
#	192906
#
# Disc length: 2872
#
# Revision: 1
# Processed by: cddbd v1.5.1PL0 Copyright (c) Steve Scherf et al.
# Submitted via: dBpowerAMP V4.0
# Normalized: r0:DSETVAR1,TDELIM( - )
#
DISCID=cc0b360e
DTITLE=Various Artist - Every day i have the blues cd3
DYEAR=2000
DGENRE=blues
TTITLE0=Muddy Waters - Feel like going home
TTITLE1=Memphis Slim - Rokin Chair blues
TTITLE2=Otis Spann - This is the blues
TTITLE3=John lee Hooker - Crawling King snake
TTITLE4=Robert Johnson - Cross road Blues
TTITLE5=Lightnin' Hopkins - Black cat Blues
TTITLE6=Bessie Smith - Me and my Gin
TTITLE7=Bukka White - Sleepy man blues
TTITLE8=Blind Willie McTell - My baby's gone
TTITLE9=Brownie McGhee - Money Spending woman
TTITLE10=Robert Nighthawk - Anna lee blues
TTITLE11=Tampa red - Turpentine blues
TTITLE12=Etta James - At last
TTITLE13=B.B. King - the thrill is gone
EXTD=
EXTT0=
EXTT1=
EXTT2=
EXTT3=
EXTT4=
EXTT5=
EXTT6=
EXTT7=
EXTT8=
EXTT9=
EXTT10=
EXTT11=
EXTT12=
EXTT13=
PLAYORDER=
